<svg width="128" height="114" viewBox="0 0 128 114" fill="none" xmlns="http://www.w3.org/2000/svg">
<path d="M35.7556 13.1199C33.1778 11.6948 29.9333 12.6197 28.5111 15.2054C26.1333 19.4765 24.8889 24.3234 24.8889 29.2148C24.8889 33.4458 25.7847 37.539 27.5511 41.3587C28.4504 43.3101 30.38 44.4558 32.3956 44.4558C33.1456 44.4558 33.906 44.296 34.6289 43.9625C37.3111 42.7327 38.4667 39.3755 37.2222 36.8853C36.1111 34.4841 35.5556 31.905 35.5556 29.2148C35.5556 26.1176 36.3438 23.0583 37.8333 20.3636C39.2667 17.7956 38.3333 14.5451 35.7556 13.1199ZM13.9133 0.525322C10.26 -0.960543 6.12889 0.817248 4.65556 4.45109C1.566 12.0861 0 20.1635 0 28.2587C0 36.7519 1.566 44.8449 4.65556 52.471C5.77333 55.2502 8.43778 56.9177 11.2511 56.9177C12.1356 56.9177 13.0422 56.7621 13.9133 56.4063C17.5556 54.9167 19.3133 50.7813 17.8378 47.135C15.4378 41.1986 14.2222 34.9288 14.2222 28.4588C14.2222 21.9978 15.4376 15.719 17.8378 9.78491C19.3133 6.14528 17.5556 1.99829 13.9133 0.525322ZM123.333 4.45109C121.865 0.802574 117.727 -0.953873 114.076 0.524655C110.433 1.99762 108.676 6.14528 110.151 9.78491C112.556 15.719 113.778 22 113.778 28.4588C113.778 34.9199 112.562 41.2009 110.162 46.9349C108.689 50.7813 110.444 54.9167 114.089 56.4063C114.956 56.7621 115.867 56.9177 116.756 56.9177C119.569 56.9177 122.231 55.2364 123.349 52.471C126.244 44.8449 128 36.7519 128 28.2587C128 20.1635 126.244 12.0861 123.333 4.45109ZM93.3778 12.9465C90.7044 14.1831 89.5378 17.351 90.7733 20.0257C91.8889 22.4335 92.4444 25.0126 92.4444 27.7029C92.4444 30.8022 91.6562 33.8593 90.1667 36.5541C88.7396 39.1309 89.6736 42.3837 92.25 43.8066C93.0696 44.2582 93.9549 44.4736 94.83 44.4736C96.7051 44.4736 98.5278 43.4798 99.5011 41.7233C101.867 37.4412 103.111 32.5943 103.111 27.7029C103.111 23.4719 102.215 19.3809 100.449 15.559C99.2222 12.8709 96.0222 11.717 93.3778 12.9465ZM67.0667 14.5518C57.8889 12.6241 49.7778 19.5943 49.7778 28.4588C49.7778 33.7126 52.6556 38.2505 56.8889 40.7139V106.725C56.8889 110.654 60.0733 113.84 64 113.84C67.9267 113.84 71.1111 110.654 71.1111 106.725V40.7095C76.2778 37.6991 79.4267 31.6026 77.7844 24.8837C76.5333 19.7678 72.2222 15.6323 67.0667 14.5518Z" fill="black"/>
</svg>
