<svg width="16" height="15" viewBox="0 0 16 15" fill="none" xmlns="http://www.w3.org/2000/svg">
  <path d="M4.46944 1.63999C4.14722 1.46185 3.74167 1.57746 3.56389 1.90068C3.26667 2.43456 3.11111 3.04042 3.11111 3.65185C3.11111 4.18073 3.22308 4.69237 3.44389 5.16984C3.55631 5.41377 3.7975 5.55698 4.04944 5.55698C4.14319 5.55698 4.23825 5.53701 4.32861 5.49531C4.66389 5.34159 4.80833 4.92193 4.65278 4.61067C4.51389 4.31051 4.44444 3.98813 4.44444 3.65185C4.44444 3.2647 4.54297 2.88229 4.72917 2.54545C4.90833 2.22445 4.79167 1.81814 4.46944 1.63999ZM1.73917 0.0656652C1.2825 -0.120068 0.766111 0.102156 0.581944 0.556386C0.19575 1.51076 0 2.52044 0 3.53234C0 4.59399 0.19575 5.60562 0.581944 6.55888C0.721667 6.90627 1.05472 7.11471 1.40639 7.11471C1.51694 7.11471 1.63028 7.09526 1.73917 7.05079C2.19444 6.86459 2.41417 6.34766 2.22972 5.89187C1.92972 5.14983 1.77778 4.3661 1.77778 3.55735C1.77778 2.74972 1.92969 1.96488 2.22972 1.22311C2.41417 0.76816 2.19444 0.249786 1.73917 0.0656652ZM15.4167 0.556386C15.2331 0.100322 14.7158 -0.119234 14.2594 0.0655818C13.8042 0.249703 13.5844 0.76816 13.7689 1.22311C14.0694 1.96488 14.2222 2.75 14.2222 3.55735C14.2222 4.36499 14.0703 5.15011 13.7703 5.86686C13.5861 6.34766 13.8056 6.86459 14.2611 7.05079C14.3694 7.09526 14.4833 7.11471 14.5944 7.11471C14.9461 7.11471 15.2789 6.90455 15.4186 6.55888C15.7806 5.60562 16 4.59399 16 3.53234C16 2.52044 15.7806 1.51076 15.4167 0.556386ZM11.6722 1.61831C11.3381 1.77289 11.1922 2.16887 11.3467 2.50321C11.4861 2.80419 11.5556 3.12658 11.5556 3.46286C11.5556 3.85028 11.457 4.23242 11.2708 4.56926C11.0924 4.89136 11.2092 5.29796 11.5313 5.47583C11.6337 5.53227 11.7444 5.5592 11.8537 5.5592C12.0881 5.5592 12.316 5.43497 12.4376 5.21542C12.7333 4.68015 12.8889 4.07428 12.8889 3.46286C12.8889 2.93398 12.7769 2.42261 12.5561 1.94487C12.4028 1.60886 12.0028 1.46462 11.6722 1.61831ZM8.38333 1.81897C7.23611 1.57802 6.22222 2.44929 6.22222 3.55735C6.22222 4.21408 6.58194 4.78131 7.11111 5.08924V13.3407C7.11111 13.8317 7.50917 14.23 8 14.23C8.49083 14.23 8.88889 13.8317 8.88889 13.3407V5.08869C9.53472 4.71238 9.92833 3.95033 9.72306 3.11046C9.56667 2.47097 9.02778 1.95404 8.38333 1.81897Z" fill="black"/>
</svg>
