<?xml version="1.0" standalone="no"?>
<!DOCTYPE svg PUBLIC "-//W3C//DTD SVG 20010904//EN"
 "http://www.w3.org/TR/2001/REC-SVG-20010904/DTD/svg10.dtd">
<svg version="1.0" xmlns="http://www.w3.org/2000/svg"
 width="700.000000pt" height="700.000000pt" viewBox="0 0 700.000000 700.000000"
 preserveAspectRatio="xMidYMid meet">
<metadata>
Created by potrace 1.14, written by Peter Selinger 2001-2017
</metadata>
<g transform="translate(0.000000,700.000000) scale(0.100000,-0.100000)"
fill="#000000" stroke="none">
<path d="M1510 5593 c-93 -31 -149 -89 -189 -194 -29 -75 -78 -228 -86 -266
-2 -10 -10 -49 -18 -88 -37 -168 -41 -215 -41 -480 -1 -214 4 -313 20 -387 2
-13 9 -45 15 -73 26 -136 84 -327 127 -425 43 -97 125 -152 232 -156 105 -4
182 41 235 138 40 72 39 146 -3 258 -74 201 -112 399 -114 606 -2 115 9 271
22 329 5 22 9 41 9 43 1 36 35 163 86 317 33 97 38 159 18 205 -3 8 -7 21 -9
29 -5 26 -61 86 -108 115 -38 24 -60 30 -114 32 -37 1 -74 0 -82 -3z"/>
<path d="M5338 5586 c-146 -54 -209 -203 -151 -356 24 -62 53 -152 55 -167 0
-5 4 -19 9 -31 18 -46 43 -189 55 -303 11 -111 6 -341 -10 -424 -2 -11 -7 -40
-11 -65 -11 -70 -55 -230 -75 -277 -10 -24 -17 -43 -14 -43 2 0 -3 -14 -11
-31 -30 -57 -26 -158 8 -229 7 -14 25 -40 41 -57 108 -121 320 -101 407 37 58
94 156 459 177 664 9 90 9 431 0 516 -16 155 -73 392 -135 563 -38 106 -64
141 -136 186 -46 28 -156 38 -209 17z"/>
<path d="M2305 5132 c-65 -26 -113 -92 -161 -219 -88 -233 -92 -498 -12 -728
43 -123 82 -173 153 -198 77 -26 152 -5 207 56 58 64 60 132 8 281 -47 132
-47 284 0 423 11 34 30 79 43 100 34 58 31 155 -6 212 -48 72 -152 105 -232
73z"/>
<path d="M4628 5144 c-2 -2 -13 -5 -24 -7 -81 -16 -140 -90 -145 -184 -2 -22
8 -65 23 -103 77 -192 70 -378 -22 -572 -17 -35 -30 -79 -30 -98 0 -119 81
-203 195 -203 87 0 144 43 193 146 129 269 142 556 39 840 -33 90 -64 133
-112 157 -38 18 -109 33 -117 24z"/>
<path d="M3390 5069 c-19 -5 -42 -11 -50 -13 -70 -19 -140 -65 -213 -139 -103
-106 -149 -229 -142 -377 5 -109 6 -112 58 -218 32 -67 138 -185 176 -197 l21
-6 2 -1247 3 -1247 22 -40 c46 -85 122 -135 219 -143 104 -8 197 47 245 145
l24 48 3 1240 2 1241 33 19 c17 10 53 41 79 68 166 172 192 446 62 642 -58 87
-99 123 -209 185 -74 42 -250 62 -335 39z"/>
</g>
</svg>
